Coordinates
version=1
nRows=19
nColumns=33
inDegrees=yes

Units are S.I. units (second, meters, Newtons, ...)
Angles are in degrees.

endheader
time	ground_thorax_rot_x	ground_thorax_rot_y	ground_thorax_rot_z	ground_thorax_tx	ground_thorax_ty	ground_thorax_tz	clav_prot_r	clav_elev_r	scapula_abduction_r	scapula_elevation_r	scapula_upward_rot_r	scapula_winging_r	shoulder_elv_r	plane_of_elev_r	axial_rot_r	elbow_flexion_r	pro_sup_r	wrist_flex_r	wrist_dev_r	clav_prot_l	clav_elev_l	scapula_abduction_l	scapula_elevation_l	scapula_upward_rot_l	scapula_winging_l	shoulder_elv_l	plane_of_elev_l	axial_rot_l	elbow_flexion_l	pro_sup_l	wrist_flex_l	wrist_dev_l
      4.56000000	    -31.62903252	    -28.22636534	     36.83626913	    -91.65544570	    858.91051763	    -43.73907124	     26.99585105	    -45.00000000	     41.00021930	    -45.00000000	    -45.00000000	   2052.60602376	    257.46208145	    158.89710947	     35.18937086	   2158.31861766	    157.53303945	     15.94012031	     14.93164571	     -3.05839959	     38.11267255	    -35.86048648	    -45.00000000	    -26.01453504	   3698.94837678	  -2981.34731111	    143.14439086	    179.99999979	    361.59189868	    403.16539249	     11.50392798	    -24.99999983
      4.57000000	    -31.41271832	    -28.46200549	     37.20275669	    -89.16254869	    858.28707234	    -43.74015093	     26.71961215	    -45.00000000	     41.03541260	    -45.00000000	    -45.00000000	   2052.94857656	    257.39819405	    159.03828900	     34.76863165	   2158.23395839	    157.29054389	     15.86922142	     14.97313477	     -2.84119993	     38.24362214	    -35.98153989	    -45.00000000	    -25.70652342	   3698.95035919	  -2981.47588574	    143.21841592	    179.99999979	    361.65495432	    402.95122571	     11.71299283	    -24.99999983
      4.58000000	    -31.21535068	    -28.61833247	     37.57702171	    -86.56927682	    857.58605211	    -43.73086999	     26.43186040	    -45.00000000	     40.91570742	    -45.00000000	    -45.00000000	   2053.24159698	    257.36881529	    159.06214377	     34.32023861	   2158.31464376	    157.08473131	     15.72157352	     15.01425645	     -2.67569974	     38.32124104	    -36.12332311	    -45.00000000	    -25.42732295	   3698.83669527	  -2981.59620726	    143.31503401	    179.99999979	    361.81284764	    402.75508763	     11.91002410	    -24.99999983
      4.59000000	    -30.89801102	    -28.98463463	     38.04534308	    -83.88533105	    856.80657978	    -43.70973623	     26.44165271	    -45.00000000	     40.96751855	    -45.00000000	    -45.00000000	   2053.43959305	    257.28967065	    158.98936834	     34.00653894	   2158.28108435	    156.97991936	     15.64622873	     15.05417134	     -2.69539602	     38.33124590	    -36.14017153	    -45.00000000	    -25.23068026	   3698.86085566	  -2981.68747446	    143.34480787	    179.99999979	    361.90531123	    402.69693904	     12.12572989	    -24.99999983
      4.60000000	    -30.35131735	    -29.53242024	     38.89725914	    -81.12140000	    855.94833602	    -43.67512448	     27.23014461	    -45.00000000	     41.30566463	    -45.00000000	    -45.00000000	   2053.27560244	    257.07644940	    158.85287600	     34.23679946	   2158.28256274	    157.02362677	     15.60317008	     15.09568706	     -3.08652451	     38.16446713	    -35.95904858	    -45.00000000	    -25.53522925	   3698.93660261	  -2981.73059284	    143.00474404	    179.99999979	    361.87727014	    402.65390401	     12.41861412	    -24.99999983
      4.61000000	    -30.03362890	    -29.87856923	     39.37918285	    -78.28485460	    855.00995722	    -43.62616205	     26.90240240	    -45.00000000	     41.29902708	    -45.00000000	    -45.00000000	   2053.63445932	    257.06717013	    158.95610953	     33.81515300	   2158.24358730	    157.02297860	     15.54842131	     15.09152774	     -2.80958508	     38.27624351	    -35.95597948	    -45.00000000	    -25.29419334	   3698.92634285	  -2981.84445568	    143.03849429	    179.99999979	    361.98413500	    402.62408606	     12.58219416	    -24.99999983
      4.62000000	    -29.56495333	    -30.35543223	     40.11406281	    -75.38407954	    853.99323923	    -43.56292926	     27.40582617	    -45.00000000	     41.42562981	    -45.00000000	    -45.00000000	   2053.57169066	    256.88685149	    158.76085210	     33.80096211	   2158.33186584	    157.13258877	     15.42087147	     15.17125103	     -3.25470434	     38.19446573	    -35.85073318	    -45.00000000	    -25.05832432	   3699.02633483	  -2981.94661526	    142.94851808	    179.99999979	    362.03000347	    402.67183162	     12.85231003	    -24.99999983
      4.63000000	    -29.49931925	    -30.46677875	     40.26922335	    -72.42126471	    852.89638544	    -43.48533572	     26.59218043	    -45.00000000	     41.14451695	    -45.00000000	    -45.00000000	   2054.15674441	    256.86796871	    158.94217873	     33.07487905	   2158.35486062	    157.23954832	     15.28336956	     15.19855707	     -2.71654311	     38.41005988	    -36.20533330	    -45.00000000	    -24.52046169	   3698.96261466	  -2982.19060580	    143.27653976	    179.99999979	    362.12061898	    402.87697591	     12.92926269	    -24.99999983
      4.64000000	    -29.14603021	    -30.84761608	     40.82603852	    -69.39899008	    851.72048492	    -43.39477291	     26.60946957	    -45.00000000	     41.17345152	    -45.00000000	    -45.00000000	   2054.31871417	    256.71842914	    158.90638359	     32.84885961	   2158.41862269	    157.47964028	     15.16453699	     15.24911514	     -2.79488544	     38.42252561	    -36.13493394	    -45.00000000	    -24.17195185	   3698.95982536	  -2982.32030109	    143.25637894	    179.99999979	    362.07187176	    403.13489659	     13.11937860	    -24.99999983
      4.65000000	    -28.57350584	    -31.42882941	     41.69947918	    -66.30932492	    850.45640200	    -43.28389054	     27.07608813	    -45.00000000	     41.42035274	    -45.00000000	    -45.00000000	   2054.32117615	    256.58097740	    158.92815189	     33.00087252	   2158.36442541	    157.76518805	     15.14379702	     15.25326248	     -2.98819689	     38.40976858	    -36.00527320	    -45.00000000	    -24.07056111	   3699.20343492	  -2982.46069877	    143.04622513	    179.99999979	    362.00408684	    403.28204803	     13.31751855	    -24.99999983
      4.66000000	    -28.16446045	    -31.86292155	     42.37746399	    -63.16217590	    849.10915590	    -43.15834932	     27.15269112	    -45.00000000	     41.47660120	    -45.00000000	    -45.00000000	   2054.45930300	    256.43945739	    158.97263322	     32.93630170	   2158.37692267	    158.06185246	     15.04960652	     15.29719499	     -3.02032551	     38.43840796	    -35.94220836	    -45.00000000	    -23.76921257	   3699.32549360	  -2982.63787067	    142.95220996	    179.99999979	    361.89454966	    403.48368622	     13.47981534	    -24.99999983
      4.67000000	    -27.74287095	    -32.29744281	     43.07731571	    -59.96939181	    847.68429240	    -43.02426185	     27.31006241	    -45.00000000	     41.54118519	    -45.00000000	    -45.00000000	   2054.53329788	    256.29079185	    158.99044122	     32.98058336	   2158.41174220	    158.41238164	     14.95853702	     15.33786851	     -3.12829204	     38.44781447	    -35.98664566	    -45.00000000	    -23.50366727	   3699.48506182	  -2982.86783508	    142.90819715	    179.99999979	    361.75405224	    403.72814640	     13.63364485	    -24.99999983
      4.68000000	    -27.49897853	    -32.60751442	     43.50183446	    -56.75594564	    846.19805834	    -42.89594977	     26.90189012	    -45.00000000	     41.38748858	    -45.00000000	    -45.00000000	   2054.94287207	    256.23015655	    159.06632166	     32.63420926	   2158.51321097	    158.80095442	     14.81358559	     15.34787608	     -2.94762507	     38.58387591	    -36.06383164	    -45.00000000	    -22.91558682	   3699.45528740	  -2983.07150016	    143.14189557	    179.99999979	    361.59956045	    404.13837592	     13.68355758	    -24.99999983
      4.69000000	    -27.21067807	    -32.97375226	     43.99971384	    -53.53559769	    844.65714760	    -42.77370675	     26.78229952	    -45.00000000	     41.28776882	    -45.00000000	    -45.00000000	   2055.13701444	    256.07704720	    159.00907835	     32.44979001	   2158.59619799	    159.29675228	     14.69641449	     15.39213557	     -3.00439881	     38.59876909	    -36.07626178	    -45.00000000	    -22.46248496	   3699.51134411	  -2983.26067275	    143.25511237	    179.99999979	    361.51424289	    404.56842101	     13.76379029	    -24.99999983
      4.70000000	    -25.66829413	    -34.12543399	     46.05771511	    -50.32977682	    843.07766469	    -42.66382527	     28.10012160	    -45.00000000	     42.30049035	    -45.00000000	    -45.00000000	   2054.58780400	    255.86660972	    158.91873673	     33.18686585	   2158.86583413	    159.73355015	     14.46875665	     15.51059917	     -4.52096954	     38.26273753	    -35.02539270	    -45.00000000	    -22.78456528	   3698.94479761	  -2983.17890629	    143.58307849	    179.99999979	    361.49132943	    404.55372797	     14.02302592	    -24.99999983
      4.71000000	    -25.88134792	    -34.10146479	     46.09800351	    -47.13978345	    841.46027145	    -42.56055991	     27.71597760	    -45.00000000	     41.63570604	    -45.00000000	    -45.00000000	   2054.85661775	    255.77956378	    158.89968565	     33.32694483	   2158.72043261	    160.12025884	     14.52722396	     15.42159366	     -3.56931070	     38.33934176	    -35.52586351	    -45.00000000	    -23.07499115	   3699.44985669	  -2983.46228248	    142.90134187	    179.99999979	    361.32886824	    404.75843996	     14.11798595	    -24.99999983
      4.72000000	    -25.48535868	    -34.48663042	     46.74964837	    -43.96636001	    839.81015074	    -42.45858111	     27.74999709	    -45.00000000	     41.66418265	    -45.00000000	    -45.00000000	   2055.03318837	    255.65258206	    158.98473420	     33.38992414	   2158.75711366	    160.56080990	     14.45037166	     15.41191843	     -3.43946676	     38.31151683	    -35.44260747	    -45.00000000	    -23.19274141	   3699.50901343	  -2983.66724149	    142.76530095	    179.99999979	    361.24042675	    404.97086345	     14.19177150	    -24.82443843
      4.73000000	    -25.06622044	    -34.80530109	     47.38779323	    -40.79628082	    838.12203647	    -42.34524009	     27.69357272	    -45.00000000	     41.70047013	    -45.00000000	    -45.00000000	   2055.20349601	    255.59374458	    159.11276176	     33.43360431	   2158.69366412	    161.03692409	     14.39082705	     15.41340075	     -3.30401607	     38.31848702	    -35.35710104	    -45.00000000	    -23.22303266	   3699.51360802	  -2983.91684830	    142.72608150	    179.99999979	    361.16365035	    405.12378797	     14.25256276	    -24.60358999
      4.74000000	    -24.84116863	    -35.08699722	     47.83507070	    -37.63643975	    836.40637371	    -42.22096372	     27.46380816	    -45.00000000	     41.55624297	    -45.00000000	    -45.00000000	   2055.53165634	    255.46409057	    159.29035342	     33.36299041	   2158.74612190	    161.59321020	     14.26563447	     15.40852276	     -3.06435220	     38.38974104	    -35.43750635	    -45.00000000	    -23.14761449	   3699.49001405	  -2984.15301908	    142.83622915	    179.99999979	    361.08615307	    405.28613590	     14.27143907	    -24.32263853
